<?xml version="1.0" encoding="utf-8"?>
<!-- Generator: Adobe Illustrator 24.2.1, SVG Export Plug-In . SVG Version: 6.00 Build 0)  -->
<svg version="1.1" id="Layer_1" xmlns="http://www.w3.org/2000/svg" xmlns:xlink="http://www.w3.org/1999/xlink" x="0px" y="0px"
	 viewBox="0 0 1800 1800" style="enable-background:new 0 0 1800 1800;" xml:space="preserve">
<style type="text/css">
	.st0{fill:#F9D413;}
</style>
<g id="Shape_16">
	<g>
		<path class="st0" d="M1420.3,240.2l-31.7-47.6l5.3-116.4l-95.2,55.5c0,0-226.8-44.3-354.4,31.7S559,318.9,370.3,613.2l-119,153.4
			l592.5,833.2l441.7-18.5c0,0-9.3-220.9-111.1-375.6c0,0-93.9-175.9-89.9-359.7l108.4-37c0,0,76.7-478.7,193.1-462.9l45-37
			C1430.9,309,1450.7,297.1,1420.3,240.2z"/>
	</g>
</g>
<g id="Shape_41_2_">
	<g>
		<polygon points="375.5,988.8 378.2,1023.2 544.8,1023.2 544.8,991.4 		"/>
	</g>
</g>
<g id="Shape_42">
	<g>
		<polygon points="600.4,1054.9 600.4,1060.2 521,1062.8 521,1076.1 616.2,1076.1 616.2,1054.9 		"/>
	</g>
</g>
<g id="Shape_43_2_">
	<g>
		<rect x="417.9" y="1115.7" width="156.1" height="15.9"/>
	</g>
</g>
<g id="Shape_44">
	<g>
		<rect x="327.9" y="1118.4" width="74.1" height="15.9"/>
	</g>
</g>
<g id="Shape_45_2_">
	<g>
		<polygon points="484,1166 486.6,1176.6 634.8,1179.2 634.8,1166 		"/>
	</g>
</g>
<g id="Shape_46">
	<g>
		<polygon points="518.4,1181.9 518.4,1195.1 634.8,1197.7 634.8,1184.5 		"/>
	</g>
</g>
<g id="Shape_47_2_">
	<g>
		<polygon points="327.9,1187.2 327.9,1197.7 499.9,1197.7 499.9,1184.5 		"/>
	</g>
</g>
<g id="Shape_48">
	<g>
		<polygon points="753.8,1327.3 573.9,1324.7 573.9,1353.8 722,1359.1 722,1345.9 756.4,1343.2 		"/>
	</g>
</g>
<g id="Shape_49_2_">
	<g>
		<polygon points="640,1287.7 571.3,1287.7 571.3,1295.6 642.7,1295.6 		"/>
	</g>
</g>
<g id="Shape_50">
	<g>
		<polygon points="648,1287.7 650.6,1293 674.4,1293 674.4,1287.7 		"/>
	</g>
</g>
<g id="Shape_51_2_">
	<g>
		<polygon points="743.2,1287.7 682.4,1287.7 685,1293 748.5,1293 		"/>
	</g>
</g>
<g id="Shape_52">
	<g>
		<polygon points="759.1,1250.6 732.6,1250.6 732.6,1232.1 727.3,1232.1 727.3,1248 706.2,1248 706.2,1232.1 698.2,1232.1 
			698.2,1248 690.3,1248 690.3,1232.1 685,1232.1 685,1245.3 677.1,1245.3 677.1,1232.1 671.8,1232.1 671.8,1253.3 761.7,1255.9 		
			"/>
	</g>
</g>
<g id="Rectangle_1_2_">
	<g>
		<rect x="835.8" y="1427.9" width="42.3" height="23.8"/>
	</g>
</g>
<g id="Rectangle_2">
	<g>
		<rect x="907.2" y="1501.9" width="45" height="39.7"/>
	</g>
</g>
<g id="Rectangle_3_2_">
	<g>
		<rect x="740.6" y="1377.6" width="113.7" height="5.3"/>
	</g>
</g>
<g id="Shape_1">
	<g>
		<path d="M1669,1110.5c-4.9-18-26.9-40.1-34.4-66.1s-18.2-58.4-23.8-100.5c-5.6-42.1-34.1-164.2-37-187.8s-10.3-33.1-10.6-108.4
			l2.6-10.6c0,0,17.3-24.9,18.5-34.4s5.2-28.8,2.6-34.4c-2.5-5.5-12.7-21.8-18.5-29.1c0,0-62.3-83.5-76.7-113.7
			c0,0-29.9-53.8-34.4-89.9c0,0-14.9-80-34.4-92.6c0,0,21.1,70.3-29.1,84.6l-31.7-47.6l-68.8,47.6V428l-39.7-52.9l-31.7,68.8
			l-42.3,15.9c0,0-11.3,5.5-15.9,21.2c0,0-4.7,24.1-5.3,42.3l-55.5,47.6l-2.6,137.5l82,89.9l-92.6-74.1l2.6-166.6l45-37l-60.8,23.8
			L1058,758.7c0,0,13.1,56.5,37,76.7c23.9,20.3,46.2,40.6,63.5,45s58.2,2.6,58.2,2.6s60.8,69,82,100.5c0,0,56.8,73,58.2,103.2
			c0,0,8.5,64.4-2.6,82c0,0,3.2,22.7,29.1,45c25.9,22.2,62.7,43.2,76.7,45c0,0,16.2,2.6-13.2-23.8c0,0-18-47.9-31.7-63.5
			c-13.8-15.6-23.9-25.2-26.4-26.5s-3.4-6.9,2.6-13.2c6.1-6.4,11.5-11.9,18.5-10.6c7,1.4,10.9,13.9,15.9,23.8s27.2,58.2,37,71.4
			s41.1,49.3,82,45c40.9-4.4,68.5-37,84.6-119l21.2-13.2c0,0-10.9,22.5-7.9,42.3c0,0,15.3-8,18.5-21.2
			C1661,1150.1,1673.9,1128.4,1669,1110.5z"/>
	</g>
</g>
<g id="Ellipse_1">
	<g>
		<path class="st0" d="M1412.4,801v-15.5c6.3-3.3,10.6-9.9,10.6-17.5c0-11-8.9-19.8-19.8-19.8c-11,0-19.8,8.9-19.8,19.8
			c0,9.6,6.8,17.6,15.9,19.4v16.3l39.7,39.7v13.2c0,0,5.2,7.9,10.6,0V838L1412.4,801z"/>
	</g>
</g>
<g id="Ellipse_2">
	<g>
		<ellipse cx="1404.2" cy="767.2" rx="8.2" ry="8.5"/>
	</g>
</g>
<g id="Ellipse_7">
	<g>
		<path class="st0" d="M1520.8,856.5c-4.4,0-7.9,3.6-7.9,7.9c0,4.4,3.6,7.9,7.9,7.9c4.4,0,7.9-3.6,7.9-7.9
			C1528.8,860.1,1525.2,856.5,1520.8,856.5z M1518.2,830.1v-291l-39.7-45v-50.3c-8.7-9.2-15.9,0-15.9,0v55.5l39.7,45V830
			C1511.7,842,1518.2,830.1,1518.2,830.1z"/>
	</g>
</g>
<g id="Shape_2">
	<g>
		<path class="st0" d="M1613.4,1081.4c-15.9-17-42.3-47.6-42.3-47.6V883c0,0-5.2-8-13.2,0v10.6l-20.1-20.1c1-2.4,1.6-5,1.6-7.7
			c0-11-8.9-19.8-19.8-19.8c-11,0-19.8,8.9-19.8,19.8c0,11,8.9,19.8,19.8,19.8c4.1,0,7.9-1.2,11-3.4l27.3,29.8l-2.6,124.3
			c0,0,66.1,65,68.8,63.5C1626.6,1098.3,1629.3,1098.4,1613.4,1081.4z"/>
	</g>
</g>
<g id="Ellipse_8">
	<g>
		<path d="M1520.8,856.5c-4.4,0-7.9,3.6-7.9,7.9c0,4.4,3.6,7.9,7.9,7.9c4.4,0,7.9-3.6,7.9-7.9
			C1528.8,860.1,1525.2,856.5,1520.8,856.5z"/>
	</g>
</g>
<g id="Shape_3">
	<g>
		<path class="st0" d="M1470.6,912.1V549.7l-45-50.3v-76.8c13.3-0.7,23.8-11.6,23.8-25.1c0-13.9-11.2-25.1-25.1-25.1
			s-25.1,11.3-25.1,25.1c0,9.9,5.7,18.4,14,22.5h-0.7v60.8h-31.7l-39.7-45V370c6.3-3.3,10.6-9.9,10.6-17.5c0-11-8.9-19.8-19.8-19.8
			c-11,0-19.8,8.9-19.8,19.8c0,9.6,6.8,17.6,15.9,19.4v50.7c-10.5-2.6-10.6,7.9-10.6,7.9l52.9,60.8h26.5l58.2,63.5v558.1
			c6.7,8.4,13.2,0,13.2,0l2.6-182.5l39.7,39.7v55.5c5.8,7.1,10.6,0,10.6,0v-58.2L1470.6,912.1z"/>
	</g>
</g>
<g id="Ellipse_9">
	<g>
		<ellipse cx="1423.6" cy="397.8" rx="11.2" ry="11.4"/>
	</g>
</g>
<g id="Ellipse_10">
	<g>
		<path d="M1333,343.4c-4.4,0-7.9,3.6-7.9,7.9c0,4.4,3.6,7.9,7.9,7.9s7.9-3.6,7.9-7.9C1341,347,1337.4,343.4,1333,343.4z"/>
	</g>
</g>
<g id="Shape_5">
</g>
<g id="Shape_4">
	<g>
		<path class="st0" d="M1568.4,1099.9c-9.8-20.7-25-39-52.9-34.4s-26.5,74-26.5,97.9c0.1,23.9,13.2,15.9,13.2,15.9l10.6-15.9
			c5.3-4.2,5.3,5.3,5.3,5.3s3,13.1,2.6,21.2s4.1,24.5,10.6,21.2s10.6-15.9,10.6-15.9c3.5,6.5,10.6,7.9,10.6,7.9
			c9.1-8.6,2.6-37,2.6-37l-13.2-31.7l18.5-5.3l7.9,21.2c3.9,30.7,10.6,26.4,10.6,26.4C1589.7,1152.9,1578.2,1120.6,1568.4,1099.9z"
			/>
	</g>
</g>
<g id="Shape_6">
	<g>
		<path class="st0" d="M1430.9,586.7v-18.5l-34.4-37h-31.7l-58.2-60.8c0,0-4.2-1.3-10.6,0c0,0-3.4,1.4-5.3,5.3s-66.1,2.6-66.1,2.6
			l-34.4,13.2l-5.3,55.5l-50.3,39.7l-2.6,113.7L1232.5,801h-29.1c0,0-11.5,5.7,0,13.2h95.2l68.8,79.3v87.3l-37-45v-50.3l-37-37
			h-60.8l-10.6,7.9h-37l-62.6-57.6c2.8-3.4,4.4-7.8,4.4-12.5c0-11-8.9-19.8-19.8-19.8c-11,0-19.8,8.9-19.8,19.8
			c0,11,8.9,19.8,19.8,19.8c3.5,0,6.8-0.9,9.6-2.5l65.7,60.7h58.2l124.3,132.3v89.9c0,0,30.5,45.6,66.1,2.6v-209L1333,764v-68.8
			h68.8l26.5,58.2c0,0-2.5-118-26.5-171.9c0,0-18.4-27.4-34.4-37h21.2L1430.9,586.7z"/>
	</g>
</g>
<g id="Ellipse_11">
	<g>
		<path d="M1108.2,779.8c-4.4,0-7.9,3.6-7.9,7.9c0,4.4,3.6,7.9,7.9,7.9s7.9-3.6,7.9-7.9C1116.1,783.4,1112.6,779.8,1108.2,779.8z"/>
	</g>
</g>
<g id="Shape_8">
	<g>
		<polygon points="1288.1,859.2 1256.3,861.8 1317.2,927.9 1317.2,890.9 		"/>
	</g>
</g>
<g id="Shape_9">
	<g>
		<path d="M1319.8,774.5l-2.6-79.3v-18.5l68.8-2.6c0,0-24.8-32.1-26.4-42.3c0,0-20.7,3.8-26.4,0c0,0-59.6-28-82-95.2l-5.3,47.6
			l-50.3,42.3v42.3l66.1,55.5v74.1h47.6l74.1,84.6v195.7c0,0,14.4,14.5,29.1,0l2.6-153.4l5.3-15.9v-23.8L1319.8,774.5z"/>
	</g>
</g>
<g id="Shape_7">
	<g>
		<path d="M1306.6,491.5c0,0-8.7-3.6-10.6,2.6l-2.6,2.6h-66.1l-21.2,10.6v50.3l-58.2,42.3v97.9l100.5,92.6v-58.2l-45-39.7
			l-29.1-13.2v-58.2l55.5-45l7.9-42.3c0,0,1.6-12.8,13.2-10.6l26.4,2.6l5.3,5.3h63.5L1306.6,491.5z"/>
	</g>
</g>
<g id="Shape_11">
	<g>
		<path class="st0" d="M1285.4,676.7l-20.1-17.9c1-2.2,1.6-4.6,1.6-7.2c0-9.5-7.7-17.2-17.2-17.2s-17.2,7.7-17.2,17.2
			s7.7,17.2,17.2,17.2c1.3,0,2.5-0.2,3.7-0.4l29.3,26.9h34.4v-18.5L1285.4,676.7L1285.4,676.7z"/>
	</g>
</g>
<g id="Ellipse_12">
	<g>
		<path d="M1251,644.9c-4.4,0-7.9,3.6-7.9,7.9c0,4.4,3.6,7.9,7.9,7.9c4.4,0,7.9-3.6,7.9-7.9C1259,648.5,1255.4,644.9,1251,644.9z"/>
	</g>
</g>
<g id="Shape_12_2_">
	<g>
		<path d="M1639.9,441.3c0,0-64.1-75.4-86.7-92.9c-2.2-1.4-3.2-2.3-3.2-2.3c0.9,0.6,2,1.4,3.2,2.3c8.6,5.6,35,20.1,84.1,24.2
			c0,0-70.1-43-97.9-68.8c-67.9-72.3-88.2-91.7-127-108.4c0,0,40.1,45.1,47.6,60.8c7.5,15.7,14.5,41.6,18.5,82
			S1538.9,446.7,1579,473c0,0-49.9-118-63.5-134.9S1595.3,429.1,1639.9,441.3z"/>
	</g>
</g>
<g id="Shape_13">
	<g>
		<polygon points="1486.4,211.2 1549.9,266.7 1626.6,160.9 		"/>
	</g>
</g>
<g id="Shape_14_2_">
	<g>
		<path d="M1290.7,129.2c0,0-16.4,30.1-42.3,42.3c0,0-42.8,44.2-52.9,71.4c0,0-3.1,36.3,5.3,47.6c8.4,11.3,12.7,17.8,26.5,23.8
			c13.7,6,0-2.6,0-2.6s-12.5-27.9-10.6-39.7c0,0-1-27.4,18.5-42.3c0,0,33.4-31,58.2-47.6c0,0,18.4-22.6,39.7-45
			c0,0,43.1-46,58.2-55.5c0,0-10.2,44.4-23.8,82c0,0-13.8,53.2-23.8,71.4c0,0-17.6,47.2-37,52.9c0,0,48.9,4.6,82-82L1415,52.5
			C1415,52.5,1335.2,87.9,1290.7,129.2z"/>
	</g>
</g>
<g id="Shape_15">
	<g>
		<path d="M1282.8,123.9c0,0-94.8-68.6-407.3-60.8l161.3,45c0,0-301.1,5.5-391.5,42.3L894,163.5c0,0-331.1,11.6-457.6,132.2
			L648,279.9c0,0-208,76.9-372.9,264.5l164-76.7c0,0-53.7,54.8-68.8,84.6l60.8,5.3l211.6-209L473.4,465.1c0,0,168.5-129.6,246-174.6
			c0,0,142.1-88.6,277.7-119l232.8-5.3c0,0,9.1-2.4,0-5.3c-9.1-2.9-177.2-10.6-177.2-10.6s-5-6.1,5.3-7.9l193.1-2.6
			c0,0,8.2-2.7,0-5.3l-134.9-7.9c0,0-5.8-4.9,0-7.9c0,0,134,0.4,161.3,7.9C1277.5,126.5,1289.2,129.9,1282.8,123.9z"/>
	</g>
</g>
<g id="Shape_17_2_">
	<g>
		<path d="M1007.7,438.6L576.6,864.5l-164,2.6c0,0-14.1,2.7,0,7.9l177.2,2.6l211.6-214.2l-2.6,50.3L592.4,912.1l-259.2-2.6v13.2
			l261.9,2.6l219.5-216.9l5.3-63.5l198.4-190.4h63.5l7.9-15.9L1007.7,438.6L1007.7,438.6z"/>
	</g>
</g>
<g id="Shape_18">
	<g>
		<polygon points="415.2,808.9 409.9,803.6 290.9,801 290.9,819.5 589.8,819.5 589.8,811.6 		"/>
	</g>
</g>
<g id="Shape_19_2_">
	<g>
		<polygon points="1013,361.9 634.8,748.1 372.9,753.4 372.9,766.6 605.7,769.2 611,764 634.8,764 1018.3,372.5 1145.2,372.5 
			1145.2,361.9 		"/>
	</g>
</g>
<g id="Shape_20">
	<g>
		<polygon points="304.1,748.1 304.1,761.3 296.2,761.3 296.2,748.1 224.8,745.4 224.8,766.6 312.1,769.2 312.1,748.1 		"/>
	</g>
</g>
<g id="Shape_21_2_">
	<g>
		<polygon points="343.8,700.5 343.8,711.1 338.5,711.1 338.5,700.5 322.6,700.5 322.6,716.3 388.8,716.3 388.8,703.1 		"/>
	</g>
</g>
<g id="Shape_22">
	<g>
		<rect x="402" y="700.5" width="10.6" height="13.2"/>
	</g>
</g>
<g id="Shape_23_2_">
	<g>
		<polygon points="452.3,687.3 454.9,700.5 626.8,700.5 640,687.3 		"/>
	</g>
</g>
<g id="Shape_24">
	<g>
		<polygon points="354.4,594.7 341.2,626.4 380.8,626.4 399.4,597.3 		"/>
	</g>
</g>
<g id="Shape_25_2_">
	<g>
		<polygon points="732.6,428 621.5,533.8 481.3,536.5 478.7,547.1 629.5,547.1 740.6,438.6 		"/>
	</g>
</g>
<g id="Shape_26">
	<g>
		<rect x="547.5" y="491.5" width="66.1" height="10.6"/>
	</g>
</g>
<g id="Shape_27_2_">
	<g>
		<polygon points="1013,301.1 677.1,634.4 412.6,634.4 412.6,647.6 679.7,647.6 1015.6,314.3 1153.2,314.3 1153.2,303.7 		"/>
	</g>
</g>
<g id="Shape_28">
	<g>
		<polygon points="1020.9,248.2 669.1,589.4 460.2,589.4 460.2,600 671.8,600 1015.6,261.4 1034.2,261.4 1036.8,248.2 		"/>
	</g>
</g>
<g id="Shape_29_2_">
	<g>
		<polygon points="745.8,327.5 645.3,436 653.3,443.9 756.4,338.1 		"/>
	</g>
</g>
<g id="Shape_30">
	<g>
		<polygon points="886,277.3 796.1,364.6 806.7,372.5 894,287.9 936.3,277.3 936.3,264.1 		"/>
	</g>
</g>
<g id="Shape_31_2_">
	<g>
		<polygon points="854.3,256.1 859.6,272 909.8,253.5 912.5,235 		"/>
	</g>
</g>
<g id="Shape_32">
	<g>
		<rect x="1007.7" y="205.9" width="105.8" height="7.9"/>
	</g>
</g>
<g id="Shape_33_2_">
	<g>
		<path d="M1179.6,248.2h-52.9l52.9,10.6C1187.3,252.7,1179.6,248.2,1179.6,248.2z"/>
	</g>
</g>
<g id="Shape_34">
	<g>
		<path d="M1089.7,898.9c0,0-8.5,64.5-7.9,84.6c0,1.3,0.1,2.4,0.2,3.4c1.6,14.6,10.4-0.7,10.4-0.7
			C1090.7,975.1,1089.7,898.9,1089.7,898.9z"/>
	</g>
</g>
<g id="Shape_35_2_">
	<g>
		<path d="M1198.1,1237.4c-52.8-99-95.2-238-95.2-238c-1.8,71.4,74.1,238,74.1,238c25.6,53.5,60.8,183.6,68.8,214.2
			s15.9,156.1,15.9,156.1h23.8C1300.5,1466.4,1198.1,1237.4,1198.1,1237.4z"/>
	</g>
</g>
<g id="Shape_36">
	<g>
		<polygon points="989.2,1073.4 991.8,935.9 936.3,869.8 936.3,716.3 986.5,562.9 970.7,570.9 923.1,711.1 923.1,872.4 976,930.6 
			981.3,1076.1 1050,1155.4 1050,1144.8 		"/>
	</g>
</g>
<g id="Shape_37_2_">
	<g>
		<polygon points="1026.2,496.8 1026.2,623.8 999.8,679.3 1013,679.3 1034.2,623.8 1034.2,491.5 		"/>
	</g>
</g>
<g id="Shape_38">
	<g>
		<polygon points="1108.2,1218.9 1108.2,1105.2 1047.4,1025.8 1047.4,898.9 991.8,838 991.8,729.6 1010.3,711.1 999.8,711.1 
			981.3,732.2 978.6,840.7 1031.5,901.5 1034.2,1028.5 1095,1105.2 1097.6,1221.5 1166.4,1298.2 1174.3,1343.2 1179.6,1345.9 
			1179.6,1300.9 		"/>
	</g>
</g>
<g id="Shape_39_2_">
	<g>
		<path d="M1206.1,1462.2c-4.1,9.8-18.5,15.9-18.5,15.9c-24.7,8.8-42.3-15.9-42.3-15.9c-16.2-12.4-18.5-52.9-18.5-52.9
			c1.2-7.6-10.6-18.5-10.6-18.5l-161.3-164l7.9-7.9l164,164c9.2,9.3,10.6,23.8,10.6,23.8c2.3,47.4,26.5,55.5,26.5,55.5
			c29.8,14.6,34.4-10.6,34.4-10.6c-2.5-20.3-37-60.8-37-60.8l-235.4-248.6v-108.4l-29.1-42.3l-13.2,21.2v219.5L955,1301h31.7
			l124.3,119v97.9h23.8l2.6,55.5l-15.9-2.6l-2.6-47.6h-26.4v-97.9l-111.1-105.8l-34.4-2.6l-76.7-82l-5.3-224.8l18.5-29.1v-42.3
			l-50.3,47.6l-2.6,148.1l-13.2-2.6V978.2l50.3-55.5l-10.6-129.6L828,816.9l5.3,95.2l-55.5,60.8v121.7H767l-5.3-121.7l58.2-63.5
			l-5.3-95.2l55.5-66.1v-58.2l37-87.3l-63.5,63.5l-5.3,74.1L780.1,809l-5.3,89.9h-10.6V838l-47.6,42.3l-2.6,238l328,325.3
			l-10.6,13.2l-330.6-330.6l-2.6-238l-23.8,37l-2.6,209l211.6,211.6c20.8,19.3,79.4,82,79.4,82l95.2,121.7l2.6-29.1h13.2v18.5h13.2
			v13.2h21.2v31.7l45,2.6v10.6h15.9v-13.2h42.3v-7.9h15.9v10.6h23.8C1255.4,1529.2,1206.1,1462.2,1206.1,1462.2z"/>
	</g>
</g>
<g id="Shape_40">
	<g>
		<polygon points="957.4,1097.2 936.3,1047 936.3,1129 1126.7,1330 1126.7,1314.1 		"/>
	</g>
</g>
<g id="Ellipse_13_49_">
	<g>
		<ellipse class="st0" cx="768.3" cy="1111.8" rx="22.5" ry="22.5"/>
	</g>
</g>
<g id="Ellipse_14_49_">
	<g>
		<path d="M767,1099.9c-5.8,0-10.6,4.7-10.6,10.6c0,5.8,4.7,10.6,10.6,10.6c5.8,0,10.6-4.7,10.6-10.6S772.8,1099.9,767,1099.9z"/>
	</g>
</g>
<g id="Ellipse_13_19_">
	<g>
		<circle class="st0" cx="821.2" cy="1156.7" r="22.5"/>
	</g>
</g>
<g id="Ellipse_14_19_">
	<g>
		<circle cx="819.9" cy="1155.4" r="10.6"/>
	</g>
</g>
<g id="Ellipse_13_43_">
	<g>
		<circle class="st0" cx="940.3" cy="1212.3" r="22.5"/>
	</g>
</g>
<g id="Ellipse_14_43_">
	<g>
		<path d="M938.9,1200.4c-5.8,0-10.6,4.7-10.6,10.6c0,5.8,4.7,10.6,10.6,10.6c5.8,0,10.6-4.7,10.6-10.6S944.8,1200.4,938.9,1200.4z"
			/>
	</g>
</g>
<g id="Ellipse_13_16_">
	<g>
		<path class="st0" d="M1054,1433.1c-12.4,0-22.5,10.1-22.5,22.5s10.1,22.5,22.5,22.5s22.5-10.1,22.5-22.5
			S1066.4,1433.1,1054,1433.1z"/>
	</g>
</g>
<g id="Ellipse_14_16_">
	<g>
		<ellipse cx="1052.7" cy="1454.3" rx="10.6" ry="10.6"/>
	</g>
</g>
<g id="Ellipse_13_37_">
	<g>
		<ellipse class="st0" cx="768.3" cy="905.5" rx="22.5" ry="22.5"/>
	</g>
</g>
<g id="Ellipse_14_37_">
	<g>
		<path d="M767,893.6c-5.8,0-10.6,4.7-10.6,10.6c0,5.8,4.7,10.6,10.6,10.6c5.8,0,10.6-4.7,10.6-10.6S772.8,893.6,767,893.6z"/>
	</g>
</g>
<g id="Ellipse_13_12_">
	<g>
		<ellipse cx="1009" cy="696.5" rx="22.5" ry="22.5"/>
	</g>
</g>
<g id="Ellipse_14_12_">
	<g>
		<circle class="st0" cx="1007.7" cy="695.2" r="10.6"/>
	</g>
</g>
<g id="Ellipse_13_29_">
	<g>
		<circle cx="1099" cy="450.5" r="22.5"/>
	</g>
</g>
<g id="Ellipse_14_29_">
	<g>
		<path class="st0" d="M1097.6,438.6c-5.8,0-10.6,4.7-10.6,10.6c0,5.8,4.7,10.6,10.6,10.6c5.8,0,10.6-4.7,10.6-10.6
			C1108.2,443.4,1103.5,438.6,1097.6,438.6z"/>
	</g>
</g>
<g id="Ellipse_13_7_">
	<g>
		<circle cx="1099" cy="450.5" r="22.5"/>
	</g>
</g>
<g id="Ellipse_14_7_">
	<g>
		<path class="st0" d="M1097.6,438.6c-5.8,0-10.6,4.7-10.6,10.6c0,5.8,4.7,10.6,10.6,10.6c5.8,0,10.6-4.7,10.6-10.6
			C1108.2,443.4,1103.5,438.6,1097.6,438.6z"/>
	</g>
</g>
<g id="Ellipse_13_23_">
	<g>
		<circle cx="1162.4" cy="373.8" r="22.5"/>
	</g>
</g>
<g id="Ellipse_14_23_">
	<g>
		<circle class="st0" cx="1161.1" cy="372.5" r="10.6"/>
	</g>
</g>
<g id="Ellipse_13_9_">
	<g>
		<ellipse cx="818.6" cy="302.4" rx="22.5" ry="22.5"/>
	</g>
</g>
<g id="Ellipse_14_9_">
	<g>
		<path class="st0" d="M817.3,290.5c-5.8,0-10.6,4.7-10.6,10.6s4.7,10.6,10.6,10.6c5.8,0,10.6-4.7,10.6-10.6
			S823.1,290.5,817.3,290.5z"/>
	</g>
</g>
<g id="Ellipse_13_15_">
	<g>
		<circle cx="744.5" cy="426.7" r="22.5"/>
	</g>
</g>
<g id="Ellipse_14_15_">
	<g>
		<path class="st0" d="M743.2,414.8c-5.8,0-10.6,4.7-10.6,10.6c0,5.8,4.7,10.6,10.6,10.6c5.8,0,10.6-4.7,10.6-10.6
			C753.8,419.6,749,414.8,743.2,414.8z"/>
	</g>
</g>
<g id="Ellipse_13_11_">
	<g>
		<circle cx="641.4" cy="453.2" r="22.5"/>
	</g>
</g>
<g id="Ellipse_14_11_">
	<g>
		<circle class="st0" cx="640" cy="451.8" r="10.6"/>
	</g>
</g>
<g id="Ellipse_13_2_">
	<g>
		<ellipse cx="752.5" cy="334.1" rx="22.5" ry="22.5"/>
	</g>
</g>
<g id="Ellipse_14_2_">
	<g>
		
			<ellipse transform="matrix(0.1602 -0.9871 0.9871 0.1602 302.2435 1020.9542)" class="st0" cx="751.1" cy="332.9" rx="10.6" ry="10.6"/>
	</g>
</g>
</svg>
